<?xml version="1.0" encoding="utf-8"?>
<!-- Uploaded to: SVG Repo, www.svgrepo.com, Generator: SVG Repo Mixer Tools -->
<svg fill="#000000" width="800px" height="800px" viewBox="-5.5 0 32 32" version="1.1" xmlns="http://www.w3.org/2000/svg">
<title>slideshare</title>
<path d="M19.813 6.75v8.25c0.094-0.063 0.156-0.125 0.25-0.188 0.625-0.438 1.063 0.156 0.656 0.75-0.75 0.906-2.188 2.063-4.406 2.969 0.813 2.75 0.375 4.719-0.531 5.938-0.531 0.75-1.25 1.188-1.969 1.344v0.031c-1.563 0.406-3.125-0.344-3.063-2.156 0-0.031-0.031-2.219-0.031-3.875-0.156-0.031-0.344-0.094-0.563-0.156v4.031c0.125 4.063-7.906 2.813-5.594-5.156-2.188-0.906-3.625-2.063-4.406-2.969-0.375-0.594 0.031-1.188 0.688-0.75 0.063 0.063 0.156 0.125 0.25 0.188v-8.25c0-1.125 0.844-2.063 1.906-2.063h14.906c1.063 0 1.906 0.938 1.906 2.063zM18.781 15.594v-7.906c0-1.344-0.438-1.906-1.688-1.906h-13.188c-1.313 0-1.688 0.469-1.688 1.906v8c2.813 1.469 5.219 1.188 6.531 1.156 0.563-0.031 0.938 0.094 1.125 0.313 0.063 0.031 0.094 0.063 0.125 0.125 0.25 0.219 0.5 0.406 0.719 0.594 0.063-0.656 0.438-1.094 1.406-1.031 1.344 0.031 3.813 0.313 6.656-1.25zM7.625 11.063c1.406 0 2.531 1.094 2.531 2.406s-1.125 2.406-2.531 2.406c-1.438 0-2.563-1.094-2.563-2.406s1.125-2.406 2.563-2.406zM13.563 11.063c1.406 0 2.563 1.094 2.563 2.406s-1.156 2.406-2.563 2.406-2.563-1.094-2.563-2.406 1.156-2.406 2.563-2.406z"></path>
</svg>